C:\Users\israe\Dropbox\PhDWork\ExperimentalData/subject1/145/P1S145W06_EMG(MVC)_40ms.mot
nRows=20
nColumns=16

name C:\Users\israe\Dropbox\PhDWork\ExperimentalData/subject1/145/P1S145W06_EMG(MVC)_40ms.mot
datacolumns 16
datarows 20
range 0.8650000000 0.8840000000
endheader
time	BF	ST	VL	VM	RF	TFL	GE	GA	TA	GL	GM	SO	ES	MF	VI_a
        0.8650000000	        0.0766075989	        0.0425155835	        0.0225134743	        0.0809777551	        0.0247961801	        0.0263028643	        0.0814287530	        0.0367797658	        0.0573446269	        0.3074940498	        0.4825643359	        0.1689924492	        0.8980412234	        0.8559758789	        0.0517456147	
        0.8660000000	        0.0765792541	        0.0424301948	        0.0225732177	        0.0819630603	        0.0249060911	        0.0263545061	        0.0811883177	        0.0365537037	        0.0579564296	        0.3126569912	        0.4933489443	        0.1709749175	        0.8979393712	        0.8562943126	        0.0522681390	
        0.8670000000	        0.0765514358	        0.0423540576	        0.0226251200	        0.0829575477	        0.0250141517	        0.0264103075	        0.0809429100	        0.0363391792	        0.0585681694	        0.3178135019	        0.5040863308	        0.1729118811	        0.8978345742	        0.8566157248	        0.0527913339	
        0.8680000000	        0.0765245079	        0.0422874226	        0.0226690615	        0.0839587875	        0.0251203635	        0.0264700885	        0.0806923733	        0.0361366026	        0.0591791755	        0.3229583681	        0.5147767312	        0.1748019411	        0.8977273303	        0.8569409214	        0.0533139245	
        0.8690000000	        0.0764988416	        0.0422305806	        0.0227051459	        0.0849640657	        0.0252247445	        0.0265336542	        0.0804363504	        0.0359462445	        0.0597888185	        0.3280856413	        0.5254187543	        0.1766432494	        0.8976180641	        0.8572699589	        0.0538346058	
        0.8700000000	        0.0764747399	        0.0421838231	        0.0227336051	        0.0859705551	        0.0253273492	        0.0266007608	        0.0801743622	        0.0357682584	        0.0603964377	        0.3331889475	        0.5360097133	        0.1784336902	        0.8975070000	        0.8576019146	        0.0543520801	
        0.8710000000	        0.0764524231	        0.0421473806	        0.0227547145	        0.0869755954	        0.0254282446	        0.0266711150	        0.0799058953	        0.0356026965	        0.0610013187	        0.3382619217	        0.5465462144	        0.1801710195	        0.8973939877	        0.8579354773	        0.0548651550	
        0.8720000000	        0.0764320046	        0.0421213562	        0.0227687595	        0.0879769718	        0.0255274747	        0.0267444041	        0.0796304330	        0.0354495048	        0.0616027522	        0.3432985517	        0.5570241472	        0.1818528616	        0.8972785070	        0.8582696168	        0.0553728656	
        0.8730000000	        0.0764134606	        0.0421056948	        0.0227760099	        0.0889729912	        0.0256250615	        0.0268203395	        0.0793474570	        0.0353085205	        0.0622001033	        0.3482932505	        0.5674381140	        0.1834769093	        0.8971599532	        0.8586037449	        0.0558745006	
        0.8740000000	        0.0763966965	        0.0421001999	        0.0227767004	        0.0899622947	        0.0257210087	        0.0268987096	        0.0790564614	        0.0351794771	        0.0627928529	        0.3532407984	        0.5777808947	        0.1850414953	        0.8970378819	        0.8589376617	        0.0563694975	
        0.8750000000	        0.0763816394	        0.0421045655	        0.0227710509	        0.0909435515	        0.0258152803	        0.0269793810	        0.0787569245	        0.0350620025	        0.0633806410	        0.3581366994	        0.5880433353	        0.1865459577	        0.8969120403	        0.8592715123	        0.0568573012	
        0.8760000000	        0.0763682625	        0.0421183993	        0.0227593161	        0.0919152189	        0.0259078009	        0.0270622291	        0.0784482345	        0.0349556141	        0.0639632702	        0.3629775920	        0.5982145372	        0.1879903919	        0.8967823309	        0.8596057376	        0.0573372675	
        0.8770000000	        0.0763565939	        0.0421412297	        0.0227418007	        0.0928754701	        0.0259984728	        0.0271470938	        0.0781296754	        0.0348597162	        0.0645406353	        0.3677607443	        0.6082817795	        0.1893751785	        0.8966487782	        0.8599410236	        0.0578086354	
        0.8780000000	        0.0763467368	        0.0421725289	        0.0227188432	        0.0938223093	        0.0260871811	        0.0272337850	        0.0778005593	        0.0347735960	        0.0651126641	        0.3724831085	        0.6182300792	        0.1907007177	        0.8965114809	        0.8602780552	        0.0582705762	
        0.8790000000	        0.0763388639	        0.0422117698	        0.0226908021	        0.0947537419	        0.0261738016	        0.0273220937	        0.0774604759	        0.0346964218	        0.0656792595	        0.3771409807	        0.6280420265	        0.1919672528	        0.8963705572	        0.8606169063	        0.0587222720	
        0.8800000000	        0.0763331940	        0.0422584707	        0.0226580281	        0.0956677997	        0.0262581988	        0.0274118439	        0.0771094625	        0.0346272688	        0.0662401888	        0.3817300197	        0.6376981704	        0.1931746198	        0.8962260273	        0.8609567491	        0.0591629139	
        0.8810000000	        0.0763299460	        0.0423121974	        0.0226208163	        0.0965624382	        0.0263401942	        0.0275029744	        0.0767479306	        0.0345651690	        0.0667950421	        0.3862453143	        0.6471777373	        0.1943220900	        0.8960775965	        0.8612964372	        0.0595916272	
        0.8820000000	        0.0763292677	        0.0423725649	        0.0225793765	        0.0974354949	        0.0264195467	        0.0275955469	        0.0763764666	        0.0345091439	        0.0673433401	        0.3906818853	        0.6564599239	        0.1954084159	        0.8959246277	        0.8616351910	        0.0600074357	
        0.8830000000	        0.0763312172	        0.0424392671	        0.0225338403	        0.0982846915	        0.0264959642	        0.0276896629	        0.0759957272	        0.0344582172	        0.0678846941	        0.3950351663	        0.6655258010	        0.1964320652	        0.8957664708	        0.8619727592	        0.0604092659	
        0.8840000000	        0.0763358522	        0.0425121390	        0.0224842881	        0.0991075422	        0.0265691393	        0.0277853865	        0.0756065036	        0.0344114640	        0.0684189059	        0.3993006528	        0.6743597517	        0.1973917840	        0.8956027713	        0.8623093274	        0.0607959152	
